Coordinates
version=1
nRows=49
nColumns=12
inDegrees=yes

Units are S.I. units (second, meters, Newtons, ...)
Angles are in degrees

endheader
time	SC_y	SC_z	SC_x	AC_y	AC_z	AC_x	GH_y	GH_z	GH_yy	EL_x	PS_y
       0.0              -39.45          29.88          52.84          60.55         0.9757         -12.64         -102.8           -8.7          94.39          32.13          76.17
   0.03652              -39.45          29.88          52.84          60.54         0.9747         -12.64         -102.8         -8.696          94.38          32.14          76.17
   0.07305              -39.44          29.88          52.84          60.54         0.9737         -12.64         -102.8          -8.69          94.37          32.16          76.17
    0.1096              -39.44          29.88          52.83          60.53         0.9727         -12.64         -102.8         -8.685          94.36          32.18          76.16
    0.1461              -39.44          29.88          52.83          60.53         0.9715         -12.64         -102.8         -8.679          94.35          32.19          76.16
    0.1826              -39.44          29.88          52.83          60.52         0.9703         -12.64         -102.8         -8.673          94.33          32.21          76.16
    0.2191              -39.43          29.88          52.83          60.52          0.969         -12.64         -102.8         -8.667          94.32          32.24          76.15
    0.2557              -39.43          29.89          52.82          60.51         0.9677         -12.65         -102.8          -8.66          94.31          32.26          76.15
    0.2922              -39.43          29.89          52.82          60.51         0.9662         -12.65         -102.8         -8.652           94.3          32.28          76.14
    0.3287              -39.43          29.89          52.82           60.5         0.9646         -12.65         -102.7         -8.644          94.28          32.31          76.14
    0.3652              -39.42          29.89          52.81           60.5         0.9629         -12.65         -102.7         -8.636          94.26          32.34          76.13
    0.4018              -39.42          29.89          52.81          60.49         0.9611         -12.65         -102.7         -8.627          94.25          32.37          76.13
    0.4383              -39.41          29.89          52.81          60.48         0.9591         -12.65         -102.7         -8.617          94.23           32.4          76.12
    0.4748              -39.41           29.9           52.8          60.47          0.957         -12.65         -102.7         -8.606          94.21          32.43          76.11
    0.5113               -39.4           29.9           52.8          60.46         0.9547         -12.65         -102.7         -8.594          94.18          32.47           76.1
    0.5478               -39.4           29.9          52.79          60.45         0.9522         -12.65         -102.7         -8.582          94.16          32.51           76.1
    0.5844              -39.39           29.9          52.79          60.44         0.9494         -12.66         -102.7         -8.568          94.13          32.56          76.09
    0.6209              -39.39          29.91          52.78          60.43         0.9465         -12.66         -102.7         -8.553          94.11          32.61          76.08
    0.6574              -39.38          29.91          52.77          60.42         0.9432         -12.66         -102.7         -8.537          94.07          32.66          76.07
    0.6939              -39.37          29.91          52.77          60.41         0.9397         -12.66         -102.6         -8.519          94.04          32.72          76.06
    0.7305              -39.36          29.92          52.76          60.39         0.9358         -12.66         -102.6         -8.499           94.0          32.78          76.04
     0.767              -39.36          29.92          52.75          60.37         0.9315         -12.67         -102.6         -8.478          93.96          32.85          76.03
    0.8035              -39.35          29.93          52.74          60.36         0.9268         -12.67         -102.6         -8.454          93.92          32.93          76.01
      0.84              -39.33          29.93          52.73          60.34         0.9216         -12.67         -102.6         -8.428          93.87          33.01           76.0
    0.8766              -39.32          29.94          52.72          60.31         0.9157         -12.68         -102.5         -8.398          93.81          33.11          75.98
    0.9131              -39.31          29.95          52.71          60.29         0.9092         -12.68         -102.5         -8.366          93.75          33.22          75.96
    0.9496              -39.29          29.95          52.69          60.26          0.902         -12.68         -102.5         -8.329          93.68          33.33          75.93
    0.9861              -39.28          29.96          52.67          60.23         0.8938         -12.69         -102.4         -8.288           93.6          33.47          75.91
     1.023              -39.26          29.97          52.66          60.19         0.8845         -12.69         -102.4         -8.241          93.51          33.62          75.88
     1.059              -39.23          29.98          52.64          60.15          0.874          -12.7         -102.3         -8.188          93.41          33.79          75.84
     1.096              -39.21           30.0          52.61          60.11          0.862         -12.71         -102.3         -8.128           93.3          33.99           75.8
     1.132              -39.18          30.01          52.58          60.05         0.8483         -12.71         -102.2         -8.058          93.16          34.21          75.76
     1.169              -39.15          30.03          52.55          59.99         0.8324         -12.72         -102.2         -7.978          93.01          34.47          75.71
     1.205              -39.11          30.04          52.52          59.92         0.8139         -12.73         -102.1         -7.885          92.83          34.78          75.64
     1.242              -39.06          30.07          52.47          59.84         0.7923         -12.74         -102.0         -7.776          92.63          35.13          75.57
     1.278              -39.01          30.09          52.42          59.74         0.7669         -12.76         -101.9         -7.648          92.38          35.55          75.49
     1.315              -38.94          30.12          52.36          59.62         0.7366         -12.78         -101.7         -7.496          92.09          36.04          75.39
     1.351              -38.87          30.16          52.29          59.48         0.7003          -12.8         -101.6         -7.313          91.74          36.64          75.27
     1.388              -38.77          30.21           52.2          59.31         0.6564         -12.82         -101.4         -7.092          91.32          37.36          75.13
     1.424              -38.66          30.26          52.09           59.1         0.6028         -12.85         -101.1         -6.822          90.81          38.23          74.95
     1.461              -38.52          30.33          51.96          58.85         0.5367         -12.89         -100.9         -6.488          90.17          39.32          74.74
     1.497              -38.34          30.42          51.79          58.53         0.4542         -12.94         -100.5         -6.073          89.38          40.67          74.47
     1.534              -38.12          30.52          51.59          58.13         0.3502         -12.99         -100.0         -5.549          88.38          42.37          74.13
      1.57              -37.84          30.66          51.32          57.62         0.2181         -13.07         -99.44         -4.883          87.11          44.53           73.7
     1.607              -37.49          30.83          50.98          56.96        0.04901         -13.17         -98.69         -4.031          85.49           47.3          73.14
     1.644              -37.03          31.06          50.55          56.12         -0.168         -13.29         -97.72         -2.938          83.41          50.86          72.43
      1.68              -36.44          31.35          49.99          55.05        -0.4452         -13.44         -96.49         -1.541          80.75           55.4          71.53
     1.717               -35.7          31.71           49.3           53.7        -0.7938         -13.64         -94.95         0.2146           77.4           61.1          70.39
     1.753               -34.8          32.14          48.44          52.06         -1.219         -13.88         -93.06          2.355          73.32          68.06           69.0
